/* XPM */
static char *dummy[]={
"14 14 109 2",
"Qt c None",
"#g c #001947",
".7 c #002553",
"#r c #01072f",
".6 c #013566",
".V c #014679",
"#A c #032258",
"#f c #032553",
".h c #046aa0",
".W c #055085",
".C c #055d92",
".e c #064171",
".X c #064b82",
".r c #066fa4",
".q c #0786be",
".U c #086ca3",
".L c #0871a7",
".5 c #0a69a2",
".4 c #0a69a3",
".M c #0a6fa8",
".g c #0b84bc",
".p c #0b90c9",
".T c #0c7cb5",
".K c #0c89c1",
".B c #0e8ec7",
".z c #0f9cd5",
".i c #105d81",
".A c #10a1d9",
".f c #115a86",
".N c #146497",
"#z c #192448",
".D c #1b4f74",
".J c #217293",
".y c #26769f",
".o c #2a6d8a",
".3 c #2c6182",
"#s c #2f3049",
"#q c #371a25",
".8 c #3a465a",
"#B c #43252c",
"#c c #525964",
".s c #55625d",
".2 c #5a4545",
".a c #77a1bc",
".d c #788fa8",
".S c #797a6f",
"#d c #806252",
".b c #81a8c1",
"#e c #867a70",
".m c #92685c",
"#y c #934119",
".# c #98b3c8",
".j c #9c9961",
".n c #a08168",
"#p c #a73c14",
"#N c #af0908",
"#H c #b20807",
"#K c #b30000",
"#O c #b30101",
"#P c #b40301",
"#I c #b50700",
"#Q c #b7311a",
".1 c #b73508",
"#J c #b80901",
"#M c #b84746",
"#L c #b90d03",
"#D c #bb1b06",
"#o c #bc380a",
"#a c #be400c",
"#b c #c4561d",
".I c #c46c3f",
"#u c #c74a2e",
"#E c #cb3506",
"#h c #ce480d",
"#n c #ce4c0f",
".x c #ce5112",
"#k c #d7510a",
"#v c #da4d09",
"#m c #da560f",
"#t c #de9748",
"#F c #df4e09",
"## c #e1570a",
".H c #e1580c",
".u c #e17138",
"#G c #e25409",
".0 c #e55b0a",
".l c #e75c0a",
"#l c #e75d0b",
".P c #e76208",
".F c #e7650a",
"#. c #e76b0e",
".E c #e7ab7b",
".G c #e85d0b",
".v c #e85e0e",
"#w c #e85f0b",
".Q c #e8620b",
".c c #e8680c",
".Z c #e8801b",
"#x c #e9600e",
".w c #e96314",
".R c #ec7223",
".O c #ec8c3f",
"#j c #ecc7c7",
".Y c #f59a2d",
".t c #f5b36a",
"#i c #f6a22b",
".9 c #faa129",
"#C c #fba64f",
".k c #fde8a6",
"QtQtQtQtQt.#.a.bQtQtQtQtQtQt",
"Qt.cQt.d.e.f.g.h.i.j.kQtQtQt",
"Qt.l.m.l.n.o.p.q.r.s.c.tQtQt",
"Qt.u.v.w.x.y.z.A.B.C.D.c.EQt",
".c.F.l.G.H.I.J.K.L.M.N.c.OQt",
".c.P.Q.G.R.S.T.U.V.W.X.c.Y.Z",
".c.c.0.1.2.3.4.5.6.7.8.c.9.Z",
".c#.###a#b#c#d#e#f#g#h.c#i.Z",
"#j#k#l#m#n#o#p#q#r#s#h.c#t.Z",
"Qt#u#v#w#x#y#z#A#B#h#h#C.ZQt",
"QtQt#D#E#F#G#h#h#h#h.c.Z#tQt",
"QtQtQt#H#I#J#K#L#h.Z.Z#tQtQt",
"QtQtQtQt#M#N#O#P#Q.Z#tQtQtQt",
"QtQtQtQtQt#t#t#t#t#tQtQtQtQt"};
