/* XPM */
static char *dummy[]={
"32 32 357 2",
"Qt c None",
"dF c #651b12",
"dI c #6b1506",
"#2 c #000000",
"cO c #00022b",
"cF c #00022c",
"cn c #000731",
"c# c #000c37",
"c. c #00103c",
"bX c #001440",
"b9 c #001742",
"bW c #001845",
"bF c #001b48",
"ba c #001c49",
"bs c #001d4a",
"ab c #00214e",
".X c #002250",
"b# c #002351",
".W c #011943",
"bG c #012252",
".G c #012856",
"br c #012857",
"b. c #012a59",
".q c #012e5d",
"a9 c #013060",
"bq c #013160",
".H c #013261",
"aP c #013464",
".r c #013768",
"aO c #013868",
"#H c #013869",
"a8 c #01396a",
".g c #013b6b",
".I c #013b6c",
".s c #014071",
".h c #014273",
"#G c #014274",
"#t c #014375",
".o c #014476",
"az c #014678",
".# c #014779",
".a c #014b7e",
".d c #014c7f",
"#s c #014d80",
".b c #014e81",
".c c #014f82",
".n c #015083",
".i c #015487",
".m c #015488",
".8 c #015589",
".u c #01568a",
".A c #01568b",
".l c #01578b",
"#r c #01578c",
".k c #01588c",
".J c #015b8e",
"ax c #015b8f",
".z c #015d92",
".P c #015e93",
".y c #016095",
".O c #01659a",
"cE c #02032b",
"cN c #02042b",
"cm c #020e35",
"aN c #024a7d",
".N c #02699f",
".6 c #0272a9",
".5 c #0279b2",
"#n c #0286c0",
"cY c #032a65",
"cX c #032b66",
"aj c #035487",
".1 c #036ba2",
"cW c #042961",
"cP c #04326d",
"cG c #04336d",
".9 c #044774",
".4 c #0481ba",
"#X c #05234a",
"cp c #053a75",
"cb c #053c77",
"#u c #06345c",
"co c #063e79",
"ca c #06417c",
"bZ c #06437d",
"ay c #06689e",
"bY c #074882",
"bH c #074883",
"bt c #074e89",
"#W c #07538a",
"bb c #084b83",
"aS c #08528d",
"bV c #08558f",
"bC c #085690",
"bR c #085892",
"bU c #095892",
"aR c #095993",
"bl c #095b94",
"aC c #095b95",
"bD c #095d97",
"an c #095e98",
"aQ c #095f99",
"bE c #09609a",
"aa c #09619b",
"cq c #0a366e",
".Q c #0a3a5e",
"bT c #0a558b",
"aB c #0a629c",
"bm c #0a639b",
"am c #0a659f",
"bn c #0a67a1",
"bp c #0a68a1",
"a# c #0a68a2",
"aA c #0a69a3",
"bo c #0a6aa3",
"#V c #0a6aa4",
".7 c #0a86be",
"bQ c #0b4879",
"bk c #0b5285",
"#I c #0b5f95",
"al c #0b6da7",
"aJ c #0b6fa6",
"a4 c #0b6fa8",
"a7 c #0b6fa9",
"a. c #0b70aa",
"a6 c #0b71aa",
"a5 c #0b71ab",
"#U c #0b73ac",
"#T c #0b77af",
"bB c #0c4877",
"ak c #0c75ae",
"aK c #0c76b0",
"aL c #0c78b1",
"#9 c #0c78b2",
"aM c #0c79b2",
"#F c #0c83bc",
"a3 c #0d6395",
"#8 c #0d80b9",
"#S c #0d83bc",
".j c #0d85be",
"av c #0e7cb0",
"ai c #0e88c1",
"aw c #0e89c2",
".v c #0e8ac2",
".w c #0e8dc6",
"#7 c #0e8ec6",
".x c #0e8ec7",
"cD c #0f294b",
"ah c #0f8ac0",
".K c #0f90c9",
"#3 c #0f91c6",
"#N c #0f91ca",
"#R c #0f92cb",
"#6 c #0f93cc",
".L c #0f94cd",
"#k c #0f95ce",
".M c #0f96ce",
"#q c #0f96cf",
"#5 c #0f98d0",
"#O c #0f98d1",
"#4 c #1099d1",
"#Q c #1099d2",
".2 c #109bd3",
"#A c #109cd5",
"#l c #109dd6",
"#E c #109ed6",
"#p c #109fd7",
"#P c #10a0d9",
".3 c #11a1da",
"#B c #11a4dc",
"#D c #11a5dd",
"#m c #11a6de",
"#o c #11a7e0",
"#C c #11a8e0",
"cl c #141929",
"cH c #15243a",
"cC c #161623",
"#z c #165878",
"#j c #174b65",
"au c #184358",
"a1 c #193040",
"ag c #1b3e4d",
"ck c #1e1d25",
"#. c #243746",
".f c #2b547b",
".0 c #2e3b42",
"a2 c #464d4e",
".B c #51564e",
".e c #628ca8",
"cB c #701d11",
"a0 c #721504",
"bS c #775f54",
"aD c #826151",
"bj c #861e06",
"ci c #941403",
".Z c #9e856d",
"#M c #a31a03",
"bh c #a72706",
"aZ c #a82907",
"cA c #a92808",
"bi c #a92b07",
"bx c #ac2b07",
"by c #ae2e08",
".F c #b1b9c5",
"bd c #b30000",
"di c #b40100",
"ce c #b50501",
"cS c #b51b1b",
"bL c #b53409",
"dC c #b60502",
"dH c #b60602",
"dh c #b60c00",
"dG c #b61105",
"#0 c #b62d05",
"cv c #b70f00",
"dl c #b80a03",
"dt c #b81100",
"bM c #b8370a",
"bz c #b83f0d",
"dg c #ba1700",
"dz c #bb1404",
"cu c #bb3835",
"ap c #bc1000",
"bO c #be3d0b",
"b3 c #bf3d0c",
"dD c #c01908",
"du c #c02206",
"cL c #c02c00",
"c2 c #c02d00",
"aU c #c07a4b",
"cU c #c22103",
"bA c #c2400b",
"b4 c #c2400c",
"#x c #c53b0b",
"bg c #c53f08",
"dm c #c6240c",
"dA c #c63109",
"bN c #c65212",
"b6 c #c8460e",
"ae c #c93f07",
"cT c #c94a00",
".t c #ca430d",
"dv c #cb3f0c",
"cf c #cc4a0f",
"#c c #cd480e",
"cg c #cf4d10",
"b7 c #d16220",
"ch c #d25010",
"#1 c #d34a08",
"do c #d34a11",
".V c #d35210",
"dn c #d43c14",
"dE c #d43d15",
"aY c #d44d09",
"b5 c #d46618",
".U c #d65811",
"cj c #d83707",
"dB c #d94618",
"d# c #da4918",
".p c #da6013",
"dj c #e05609",
"dw c #e07615",
".E c #e26d16",
"#Z c #e35100",
"#Y c #e3591e",
"dp c #e37d17",
"ar c #e45403",
"aq c #e45603",
".Y c #e4a66f",
"cy c #e56215",
"c4 c #e68514",
"cx c #e75d0b",
"aF c #e75f07",
"da c #e76221",
"#y c #e85d0b",
"aW c #e85e0b",
"ad c #e85e0c",
"c8 c #e85f0b",
"bf c #e8630b",
"dk c #e86b09",
"b1 c #e9640c",
"cz c #e96515",
"b2 c #e9660d",
"c9 c #e9670b",
"aX c #e9690a",
"bw c #e96b0d",
"be c #ea6a0e",
"cV c #ea6b0e",
"aV c #ea720e",
"as c #eb6a19",
"aG c #eb6c1c",
"d. c #eb760a",
"bv c #eb7610",
"ac c #eb7910",
"aE c #eb7e0f",
"bP c #ec6613",
"b8 c #ec6614",
"#d c #ec7029",
"c3 c #ec7e11",
"dx c #ec931b",
"#e c #ed7933",
"bK c #ed8913",
"dq c #ee9a1c",
"cM c #ef6b17",
"at c #ef7f32",
"#f c #ef813c",
"cw c #ef9316",
"#h c #f0681d",
"#g c #f08a47",
"#i c #f16f25",
"aH c #f18336",
"dc c #f1a21d",
"aI c #f5974c",
"dy c #f7b020",
"db c #f8822b",
".D c #f9822c",
"bI c #f9832c",
"#J c #f9852c",
"#a c #f9862b",
"cJ c #f98a2b",
"dr c #f9b721",
"bc c #fa8b2b",
"#L c #fa8c2b",
"ao c #fa8f2b",
"b0 c #fa902b",
"bu c #fa942b",
"#K c #fa972a",
"aT c #fa992a",
"#w c #fba32a",
"#v c #fba929",
"af c #fbefc2",
"cr c #fcad29",
"ct c #fcb129",
"#b c #fcb528",
"cc c #fcbc28",
"dd c #fcbf23",
"## c #fdbf28",
"cd c #fdc028",
".T c #fdc926",
".R c #fdcd27",
"cK c #fed326",
".S c #fed626",
"df c #fed65b",
"cs c #fee69c",
"c5 c #ffc525",
"ds c #ffcb36",
"de c #ffcf3f",
"c6 c #ffd248",
"cZ c #ffd650",
"c7 c #ffde67",
"bJ c #ffe125",
"c0 c #ffe16f",
"cQ c #ffe477",
".C c #ffe725",
"c1 c #ffee92",
"cR c #fff29a",
"cI c #fff5a3",
"QtQtQtQtQtQtQtQtQtQtQtQtQtQtQtQtQtQtQtQtQtQtQtQtQtQtQtQtQtQtQtQt",
"QtQtQtQtQtQtQtQtQtQtQtQtQtQtQtQtQtQtQtQtQtQtQtQtQtQtQtQtQtQtQtQt",
"QtQtQtQtQtQtQtQtQtQtQtQtQt.#.a.b.c.b.d.eQtQtQtQtQtQtQtQtQtQtQtQt",
"QtQtQtQtQtQtQtQtQtQt.f.g.h.c.i.j.k.l.m.n.oQtQtQtQtQtQtQtQtQtQtQt",
"QtQtQtQtQt.pQtQtQt.q.r.s.t.u.v.w.x.y.z.A.B.C.C.D.DQtQtQtQtQtQtQt",
"QtQtQtQtQt.EQt.F.G.H.I.t.t.J.K.L.M.N.O.P.b.Q.R.S.T.DQtQtQtQtQtQt",
"QtQtQtQt.U.V.W.X.Y.Z.t.t.0.1.2.3.4.5.6.7.8.9#.###a#b.DQtQtQtQtQt",
"QtQtQtQt#c.t#d#e#f#g#h#i#j#k#l#m#n#o#p#q#r#s#t#u.D#v#w.DQtQtQtQt",
"QtQtQtQt#x#y#y#y#y#y#y#y#z.L#A#B#C#D#E#k#F.d#G#H#I#J#K#L.DQtQtQt",
"QtQtQtQt.t#y#y#y#y#y#y#y#M#N#O#E#P#p#Q#R#S#T#U#V#W#X#L.D.D#YQtQt",
"QtQtQt.t.t#Z#y#y#y#y#y#y#0#1#2#3#4#5#6#7#8#9a.a#aaab.D.D.D.DQtQt",
"QtQtQt.t#Zac#y#y#y#y#yadaeafagah#N.K.waiajakalamanao.D.D.D.D#YQt",
"QtQtQtapaqar#y#y#y#y#yasatauavaiawax#rayaza.aAaBaC.D.D.D.D.DaDQt",
"QtQt.taE#yaF#y#y#y#yaGaHaIaJaKaLaM#9aN.haOaPaQaRaS.DaT.D.D.DaUQt",
"QtQt.taVaWaX#y#yaYaZa0a1a2a3a4a.a5a6a7a8a9b.b#babb.Dbc.D.D.DaDQt",
"QtQt.tbdbebf#ybgbhbibjbkblbmbnaAboaAbpbqbrb#bsbt.D.D.D.DbubuaUQt",
"QtQt.tbdbvbw#ybxbybzbAbBbCbDbEaaaBaabEbrabbFbGbHbI.D.D.DbJbJaDQt",
"QtQt.tbd#ybK#ybLbMbNbObPbQbCbRbSbPbTbUbVbWbXbYbZaT.Db0.D.D.DaUQt",
"QtQt.tbdb1b2#yb3b4b5b6bPbPb7bPb8bP.t.tb9c.c#cacbcc.D.Dcd.DbuaDQt",
"QtQtQtbdcebv#y#ycfcgchcibPbPbPbPcjckclcmcncocpcqcr.Dcsct.DbJQtQt",
"QtQtQtcucvcw#y#y#ycxcyczcAcBcCcDcEcFcFcFcG.DcH.D.DcIcJ.D.DcKQtQt",
"QtQtQtcubdcL#y#y#y#y#ycMcMcNcOcPcPcPcFcF.D.D.D.DcQcRcJ.DcdbIQtQt",
"QtQtQtQtcScTcUcV#y#y#y#y#ycMcWcXcXcXcYcF.D.D.DcZc0c1cJ.DctQtQtQt",
"QtQtQtQtcubdc2c3c4#y#y#y#y#y#y#y#y#y#y.D.D.Dc5c6c7.D.D.D.DQtQtQt",
"QtQtQtQtQtcubdbdbdbd#y#y#yc8c9#y#yd.d#dadbdcdddedf.D.D.DQtQtQtQt",
"QtQtQtQtQtQtcubdbddgdhdi#ybddjdkdldmdndodpdqdrds.D.D.DQtQtQtQtQt",
"QtQtQtQtQtQtQtcubdbdbddtbdbdbdbdbdcedudvdwdxdy#Y.D.DQtQtQtQtQtQt",
"QtQtQtQtQtQtQtQtcubdbdbdbdbdbdbdbdbddzdAdB#Y#Y#Y.DQtQtQtQtQtQtQt",
"QtQtQtQtQtQtQtQtQtcuc2bdbdbdbdbdbdbdbdbddCdDdE#YQtQtQtQtQtQtQtQt",
"QtQtQtQtQtQtQtQtQtQtQtcuc2bdbdbdbdbdbdbdbddEQtQtQtQtQtQtQtQtQtQt",
"QtQtQtQtQtQtQtQtQtQtQtQtQtQtdFdGbdbddHdIQtQtQtQtQtQtQtQtQtQtQtQt",
"QtQtQtQtQtQtQtQtQtQtQtQtQtQtQtQtQtQtQtQtQtQtQtQtQtQtQtQtQtQtQtQt"};
